<?xml version="1.0" standalone="no"?>
<!DOCTYPE svg PUBLIC "-//W3C//DTD SVG 20010904//EN"
 "http://www.w3.org/TR/2001/REC-SVG-20010904/DTD/svg10.dtd">
<svg version="1.0" xmlns="http://www.w3.org/2000/svg"
 width="714.000000pt" height="714.000000pt" viewBox="0 0 714.000000 714.000000"
 preserveAspectRatio="xMidYMid meet">
<metadata>
Created by potrace 1.14, written by Peter Selinger 2001-2017
</metadata>
<g transform="translate(0.000000,714.000000) scale(0.100000,-0.100000)"
fill="#000000" stroke="none">
<path d="M2076 6638 c-7 -13 -50 -86 -93 -163 -111 -195 -301 -527 -312 -545
-13 -20 -291 -504 -317 -552 -12 -21 -26 -43 -31 -50 -6 -7 -25 -40 -43 -73
-39 -73 -107 -191 -128 -225 -9 -14 -17 -27 -17 -30 0 -3 -26 -48 -57 -100
-30 -52 -66 -113 -78 -135 -12 -22 -31 -56 -42 -75 -91 -155 -238 -412 -238
-416 0 -2 -16 -28 -35 -58 -19 -30 -35 -58 -35 -61 0 -3 -11 -22 -23 -43 -21
-32 -298 -502 -348 -589 -95 -167 -145 -249 -151 -251 -5 -2 -8 -8 -8 -14 0
-13 -81 -151 -95 -160 -5 -4 -6 -8 -1 -8 5 0 1 -9 -9 -20 -17 -18 -16 -21 10
-67 15 -26 39 -68 53 -93 14 -25 63 -110 109 -189 45 -79 83 -147 83 -152 0
-5 4 -9 8 -9 4 0 15 -15 23 -32 26 -56 54 -103 61 -106 5 -2 8 -8 8 -13 0 -5
27 -54 60 -109 33 -55 60 -104 60 -109 0 -5 3 -11 8 -13 4 -1 16 -21 27 -43
11 -22 22 -42 25 -45 6 -5 242 -417 276 -480 11 -19 22 -37 27 -38 4 -2 7 -7
7 -12 0 -4 37 -70 81 -146 45 -77 84 -146 87 -154 3 -8 10 -19 15 -25 16 -20
207 -355 207 -365 0 -5 5 -10 10 -10 6 0 10 -5 10 -10 0 -6 17 -38 37 -73 21
-34 44 -73 51 -87 7 -14 39 -68 70 -120 l57 -95 2088 0 2088 -1 13 26 c18 36
39 73 52 90 6 8 25 40 41 70 16 30 42 74 56 97 15 24 27 45 27 47 0 3 20 39
45 79 25 41 45 78 45 81 0 4 8 19 19 34 34 50 241 411 241 422 0 5 5 10 10 10
6 0 10 4 10 9 0 10 164 296 182 319 6 6 7 12 2 12 -5 0 -4 4 1 8 9 6 176 289
273 462 10 19 35 62 55 95 71 121 98 170 104 187 3 10 9 18 14 18 5 0 9 4 9
10 0 5 27 55 60 111 33 55 60 105 60 110 0 5 4 9 9 9 5 0 11 8 14 18 3 9 22
44 42 77 19 33 40 69 45 80 6 11 19 35 30 53 l20 33 -35 60 c-19 33 -35 64
-35 70 0 5 -4 9 -10 9 -5 0 -10 4 -10 9 0 8 -170 305 -338 591 -31 52 -57 97
-57 100 0 3 -9 19 -19 35 -11 17 -30 47 -43 67 -12 21 -23 39 -23 42 0 3 -257
450 -280 486 -23 37 -74 125 -75 130 0 3 -8 16 -17 30 -8 14 -88 151 -177 305
-89 154 -166 287 -171 295 -5 8 -44 76 -86 150 -43 74 -81 137 -86 138 -4 2
-8 12 -8 23 0 10 -4 19 -10 19 -5 0 -10 4 -10 8 0 4 -49 95 -110 201 -60 106
-110 197 -110 202 0 5 -4 9 -10 9 -5 0 -10 5 -10 11 0 5 -24 51 -54 102 -29
51 -65 112 -78 137 -14 25 -61 108 -105 185 -43 78 -82 149 -86 158 -3 9 -11
17 -17 17 -5 0 -10 7 -10 15 0 13 -172 15 -1485 15 l-1485 0 -14 -22z m2691
-528 c10 -14 18 -28 18 -32 0 -4 6 -13 13 -19 6 -7 12 -19 12 -26 0 -7 5 -13
10 -13 6 0 10 -5 10 -10 0 -6 18 -40 40 -76 22 -36 40 -70 40 -75 0 -5 3 -9 8
-9 4 0 12 -10 18 -23 21 -41 61 -111 138 -241 42 -70 76 -132 76 -136 0 -5 4
-10 8 -12 6 -2 109 -175 177 -297 6 -11 16 -26 23 -34 15 -17 8 -36 -43 -117
-19 -30 -34 -61 -35 -67 0 -7 -4 -13 -8 -13 -5 0 -14 -16 -22 -35 -8 -19 -17
-35 -22 -35 -4 0 -8 -4 -8 -9 0 -5 -33 -66 -74 -135 -41 -68 -71 -127 -68
-130 3 -3 1 -6 -4 -6 -9 0 -40 47 -67 100 -4 8 -16 29 -27 45 -11 17 -23 37
-27 45 -4 8 -20 38 -36 65 -28 47 -40 68 -86 148 -59 103 -374 643 -378 647
-3 3 -553 5 -1224 6 -670 0 -1222 3 -1225 6 -3 4 5 23 19 45 13 21 26 43 28
49 2 5 57 102 122 215 l119 204 1229 0 1229 0 17 -25z m-588 -995 c6 -11 25
-45 42 -75 18 -30 45 -80 62 -110 16 -30 36 -62 43 -70 7 -8 13 -19 14 -25 1
-5 19 -39 40 -75 20 -36 50 -87 65 -115 122 -216 164 -289 243 -427 l90 -158
-49 -85 c-27 -47 -49 -90 -49 -95 0 -6 -4 -10 -10 -10 -5 0 -10 -5 -10 -10 0
-6 -11 -27 -23 -48 -13 -20 -36 -59 -52 -87 -68 -124 -100 -175 -107 -175 -4
0 -7 3 -6 8 1 4 -9 27 -24 52 -14 25 -92 160 -173 300 -82 140 -162 280 -178
310 -17 30 -33 57 -36 60 -7 5 -49 81 -66 117 -5 13 -13 23 -17 23 -5 0 -8 6
-8 13 0 6 -18 40 -40 75 -22 34 -40 66 -40 71 0 4 -8 15 -17 23 -16 12 -177
14 -1236 14 -805 -1 -1217 2 -1217 9 0 6 10 26 22 45 19 32 93 159 156 270 14
25 33 59 43 75 10 17 28 48 40 70 12 22 25 42 29 45 5 3 560 5 1234 5 1215 0
1225 0 1235 -20z m1586 -557 c26 -46 56 -99 68 -118 11 -19 33 -60 50 -90 16
-30 36 -62 43 -71 8 -8 14 -21 14 -27 0 -6 6 -17 13 -24 6 -8 22 -32 34 -54
19 -36 20 -44 9 -65 -13 -23 -140 -242 -177 -304 -10 -16 -24 -41 -32 -55 -7
-14 -66 -117 -131 -228 -64 -112 -125 -218 -135 -235 -10 -18 -38 -66 -63
-107 -24 -41 -47 -82 -51 -90 -4 -8 -15 -28 -25 -45 -10 -16 -31 -52 -46 -80
-16 -27 -32 -54 -36 -60 -4 -5 -25 -41 -45 -80 -21 -38 -41 -72 -44 -75 -3 -3
-13 -18 -21 -35 -8 -16 -17 -32 -21 -35 -3 -3 -15 -24 -26 -47 -29 -55 -47
-87 -53 -93 -3 -3 -11 -16 -18 -30 -7 -14 -21 -40 -32 -58 -20 -33 -192 -330
-235 -407 l-23 -40 -299 1 c-164 1 -442 3 -618 4 l-321 2 -89 156 c-50 85
-103 178 -118 206 -16 28 -42 72 -58 98 l-29 48 28 1 c15 0 292 1 615 2 l589
2 82 140 c105 180 94 159 180 310 40 72 138 243 218 380 341 590 382 662 406
705 14 25 42 73 63 107 21 35 40 72 44 83 3 11 11 20 16 20 5 0 9 4 9 10 0 5
32 63 70 129 39 66 70 125 70 131 0 5 4 10 8 10 4 0 18 20 30 45 12 25 26 45
31 45 5 0 30 -37 56 -82z m-3963 -473 c-2 -11 -8 -21 -13 -23 -5 -2 -9 -7 -9
-12 0 -5 -23 -48 -51 -97 -28 -48 -60 -103 -70 -121 -78 -136 -99 -175 -99
-182 0 -5 -4 -10 -8 -12 -5 -1 -22 -28 -39 -58 -17 -30 -92 -162 -167 -293
-75 -131 -136 -243 -136 -248 0 -5 11 -27 25 -49 14 -22 25 -42 25 -44 0 -2
21 -40 46 -83 26 -43 55 -91 64 -108 9 -16 76 -132 149 -258 72 -125 131 -232
131 -237 0 -6 3 -10 8 -10 4 0 12 -10 18 -23 6 -12 80 -141 164 -287 85 -146
161 -278 170 -295 9 -16 23 -41 32 -55 30 -48 68 -115 80 -142 7 -16 16 -28
20 -28 4 0 8 -5 8 -10 0 -6 18 -40 40 -76 22 -36 40 -67 40 -69 0 -2 36 -64
80 -139 44 -76 80 -139 80 -142 0 -3 9 -17 20 -31 11 -14 17 -29 14 -34 -3 -5
-137 -9 -297 -9 l-292 0 -55 97 c-30 54 -68 120 -83 148 -16 27 -44 75 -62
105 -18 30 -42 71 -53 90 -11 19 -41 73 -68 120 -26 47 -51 87 -54 90 -3 3
-11 16 -17 30 -14 28 -34 63 -160 280 -49 85 -143 247 -208 360 -65 113 -174
301 -242 419 -68 117 -123 217 -123 222 0 5 -4 9 -10 9 -5 0 -10 6 -10 14 0 8
-6 21 -12 28 -7 8 -20 27 -29 43 -8 17 -22 40 -29 52 -12 19 -12 26 0 50 22
41 148 266 160 283 6 8 17 29 25 45 9 17 27 48 40 70 14 22 32 56 42 75 9 19
20 37 23 40 3 3 11 16 18 30 7 14 29 52 48 85 19 33 37 68 41 78 3 9 9 17 14
17 5 0 9 5 9 11 0 6 23 49 50 96 28 47 50 89 50 94 0 5 5 9 12 9 6 0 8 3 5 6
-3 4 3 18 13 32 11 13 20 30 20 36 0 7 4 16 10 22 5 5 128 9 307 9 291 -1 298
-1 295 -20z m1156 -15 c-11 -19 -31 -53 -43 -75 -12 -22 -33 -59 -46 -81 -13
-23 -64 -111 -112 -195 -48 -85 -92 -161 -98 -169 -13 -21 -175 -302 -212
-370 -17 -30 -43 -75 -57 -100 l-26 -45 63 -108 c35 -60 63 -112 63 -118 0 -5
5 -9 10 -9 6 0 10 -4 10 -10 0 -5 20 -44 45 -86 25 -41 45 -78 45 -81 0 -3 8
-17 19 -31 10 -15 31 -49 46 -77 45 -79 85 -149 95 -165 5 -8 32 -53 58 -100
27 -47 99 -172 161 -278 61 -107 111 -198 111 -203 0 -5 5 -9 10 -9 6 0 10 -5
10 -10 0 -6 11 -27 23 -48 13 -20 35 -57 49 -82 37 -67 62 -109 97 -168 17
-29 31 -57 31 -62 0 -4 3 -10 8 -12 7 -3 35 -50 61 -105 8 -18 19 -33 23 -33
4 0 8 -4 8 -9 0 -5 40 -78 89 -162 49 -85 88 -155 86 -157 -2 -2 -134 -4 -294
-5 -251 0 -292 2 -305 16 -9 8 -16 18 -16 21 0 3 -66 119 -146 258 -81 139
-160 278 -177 308 -16 30 -35 62 -41 70 -7 8 -25 40 -40 70 -16 30 -35 62 -42
71 -8 8 -14 18 -14 22 0 6 -15 33 -156 272 -32 55 -59 102 -59 105 0 3 -8 16
-17 30 -8 14 -67 115 -131 225 -122 214 -193 337 -284 493 -84 145 -93 162
-93 172 0 5 35 69 79 142 43 73 89 151 102 174 88 150 147 251 166 282 13 21
42 70 65 110 24 41 48 81 53 90 6 10 41 70 79 135 37 64 74 121 82 125 7 4
141 7 298 7 l285 0 -21 -35z m780 -257 c73 -125 137 -235 142 -243 5 -8 66
-114 136 -235 69 -121 135 -233 146 -248 10 -15 18 -33 15 -40 -2 -8 -157 -12
-603 -12 -329 -1 -602 0 -606 2 -9 5 12 53 24 53 4 0 8 7 8 15 0 8 16 39 35
69 19 30 35 57 35 60 0 3 16 30 35 60 19 30 35 57 35 60 0 3 29 55 65 116 36
61 76 130 89 153 76 136 260 454 269 465 9 11 14 7 26 -17 9 -16 76 -132 149
-258z m2646 -336 c47 -82 86 -153 86 -157 0 -5 4 -10 8 -12 7 -3 43 -64 90
-152 14 -28 14 -32 -13 -80 -30 -53 -229 -400 -245 -426 -7 -13 -266 -458
-290 -500 -5 -8 -23 -40 -41 -70 -17 -30 -44 -77 -59 -105 -65 -116 -300 -521
-310 -532 -6 -7 -8 -13 -5 -13 3 0 -6 -17 -19 -37 -33 -51 -206 -353 -206
-359 0 -3 -8 -13 -17 -22 -14 -15 -47 -17 -262 -18 -135 -1 -407 -3 -604 -4
-197 -1 -360 -1 -362 1 -2 3 -140 241 -205 354 -10 17 -34 58 -55 93 -20 35
-34 66 -30 70 3 3 277 7 608 7 l602 1 36 59 c52 86 86 145 107 185 10 19 40
70 65 113 26 43 47 80 47 83 0 2 16 28 35 58 19 30 35 58 35 61 0 4 8 19 18
33 11 15 32 52 49 82 42 77 57 104 63 110 3 3 12 19 21 35 9 17 42 75 74 130
193 333 245 426 245 434 0 5 3 11 8 13 6 3 31 44 122 202 10 17 51 88 91 159
41 70 81 140 89 155 74 132 124 212 131 205 4 -4 46 -75 93 -156z"/>
</g>
</svg>
