<svg id="圖層_1" data-name="圖層 1" xmlns="http://www.w3.org/2000/svg" viewBox="0 0 356.898 309.173"><defs><style>.cls-1{fill:#1e5b7d;}.cls-2{fill:#abbfc1;}.cls-3{fill:#217e77;}.cls-4{fill:#c2d2ac;}.cls-5{fill:#aeb657;}.cls-6{fill:#d8daa5;}</style></defs><polygon class="cls-1" points="70.556 102.112 85.448 76.225 208.376 76.225 222.45 52.056 99.658 52.056 114.55 26.169 237.524 26.169 252.762 0 104.448 0 31.021 127.64 178.436 127.64 193.302 102.112 70.556 102.112"/><polygon class="cls-2" points="237.524 26.169 268.399 78.733 283.071 53.319 252.762 0 237.524 26.169"/><polygon class="cls-2" points="208.376 76.225 238.816 129.971 253.22 105.023 222.45 52.056 208.376 76.225"/><polygon class="cls-2" points="178.436 127.64 209.363 180.984 224.13 155.408 193.302 102.112 178.436 127.64"/><polygon class="cls-3" points="285.412 100.321 300.385 126.162 238.921 232.621 252.815 256.893 314.211 150.552 329.184 176.393 267.697 282.892 282.74 309.173 356.898 180.728 283.071 53.319 209.363 180.984 224.039 206.622 285.412 100.321"/><polygon class="cls-4" points="267.697 282.892 206.738 283.348 221.411 308.762 282.74 309.173 267.697 282.892"/><polygon class="cls-4" points="238.921 232.621 177.155 232.109 191.559 257.057 252.815 256.893 238.921 232.621"/><polygon class="cls-4" points="209.363 180.984 147.703 181.096 162.47 206.673 224.039 206.622 209.363 180.984"/><polygon class="cls-5" points="179.535 287.287 149.67 287.334 88.206 180.875 60.238 180.772 121.634 287.112 91.769 287.159 30.282 180.66 0 180.548 74.157 308.992 221.411 308.762 147.703 181.096 118.162 180.986 179.535 287.287"/><polygon class="cls-6" points="30.282 180.66 60.366 127.64 31.021 127.64 0 180.548 30.282 180.66"/><polygon class="cls-6" points="88.206 180.875 119.531 127.64 90.724 127.64 60.238 180.772 88.206 180.875"/><polygon class="cls-6" points="147.703 181.096 178.436 127.641 148.903 127.64 118.162 180.986 147.703 181.096"/></svg>