<?xml version="1.0" encoding="UTF-8"?>
<svg id="_圖層_1" data-name="圖層 1" xmlns="http://www.w3.org/2000/svg" viewBox="0 0 1300 571">
  <defs>
    <style>
      .cls-1, .cls-2, .cls-3, .cls-4, .cls-5, .cls-6, .cls-7 {
        stroke-miterlimit: 10;
      }

      .cls-1, .cls-2, .cls-3, .cls-5, .cls-6, .cls-7 {
        stroke: #0a557e;
      }

      .cls-1, .cls-8, .cls-7 {
        fill: #badcea;
      }

      .cls-1, .cls-3, .cls-5 {
        stroke-width: 5px;
      }

      .cls-9 {
        fill: #0a557e;
      }

      .cls-2, .cls-4 {
        fill: none;
      }

      .cls-2, .cls-4, .cls-6, .cls-7 {
        stroke-width: 4px;
      }

      .cls-8 {
        opacity: .42;
      }

      .cls-3, .cls-6 {
        fill: #fff;
      }

      .cls-4 {
        stroke: #c4c691;
      }

      .cls-5 {
        fill: #4caedd;
      }
    </style>
  </defs>
  <polyline class="cls-4" points="1072.01 405 1058.01 418.5 1140.09 418.5 1154.09 405"/>
  <polyline class="cls-4" points="962 405 948 418.5 1058.01 418.5 1072.01 405"/>
  <polyline class="cls-4" points="108.01 405 94 418.5 192.99 418.5 207.01 405"/>
  <polyline class="cls-4" points="207.01 405 192.99 418.5 328.99 418.5 343.01 405"/>
  <polyline class="cls-4" points="482 405 468 418.5 636 418.5 650 405"/>
  <polyline class="cls-4" points="650 405 636 418.5 804 418.5 818 405"/>
  <line class="cls-4" x1="142.5" y1="523.36" x2="182" y2="523.36"/>
  <line class="cls-4" x1="153" y1="535.36" x2="182" y2="535.36"/>
  <line class="cls-4" x1="681.5" y1="539.5" x2="701.5" y2="539.5"/>
  <g>
    <rect class="cls-9" y="375.25" width="1300" height="5"/>
    <g>
      <rect class="cls-3" x="468.55" y="211.5" width="30.18" height="193.5"/>
      <polygon class="cls-1" points="487.7 192 523.04 198.68 523.04 405 487.7 405 487.7 192"/>
      <polygon class="cls-1" points="476.7 192 441.36 198.68 441.36 405 476.7 405 476.7 192"/>
    </g>
    <g>
      <polygon class="cls-3" points="860.92 199.76 791.07 199.76 794.69 405 864.54 405 860.92 199.76"/>
      <polygon class="cls-1" points="843.67 405 773.82 405 780.43 192 850.28 192 843.67 405"/>
    </g>
    <g>
      <polygon class="cls-3" points="325.21 197 377 148 377 405 325.21 405 325.21 197"/>
      <polygon class="cls-1" points="312.21 197 364 148 364 405 312.21 405 312.21 197"/>
    </g>
    <g>
      <polygon class="cls-5" points="633.25 30 637 54 663.25 54 667 30 633.25 30"/>
      <polygon class="cls-5" points="684.05 330 683.8 330 616.2 330 615.95 330 592 405 602.23 405 697.77 405 708 405 684.05 330"/>
      <polygon class="cls-5" points="602.23 54 616.2 100 684.05 100 698.02 54 602.23 54"/>
      <polygon class="cls-5" points="602.23 100 616.2 146 684.05 146 698.02 100 602.23 100"/>
      <polygon class="cls-5" points="602.23 146 616.2 192 684.05 192 698.02 146 602.23 146"/>
      <polygon class="cls-5" points="602.23 192 616.2 238 684.05 238 698.02 192 602.23 192"/>
      <polygon class="cls-5" points="602.23 238 616.2 284 684.05 284 698.02 238 602.23 238"/>
      <polygon class="cls-5" points="602.23 284 616.2 330 684.05 330 698.02 284 602.23 284"/>
      <rect class="cls-9" x="646.5" y="284" width="7" height="8"/>
      <rect class="cls-9" x="646.5" y="238" width="7" height="8"/>
      <rect class="cls-9" x="646.5" y="192" width="7" height="8"/>
      <rect class="cls-9" x="646.5" y="146" width="7" height="8"/>
      <rect class="cls-9" x="646.5" y="100" width="7" height="8"/>
      <rect class="cls-9" x="646.5" y="54" width="7" height="8"/>
      <circle class="cls-3" cx="650" cy="330" r="11.23"/>
      <rect class="cls-9" x="647" width="7" height="30"/>
    </g>
    <g>
      <rect class="cls-9" x="799" y="52.5" width="87" height="6" transform="translate(1685 111) rotate(180)"/>
      <rect class="cls-9" x="781.5" y="52.5" width="6" height="6" transform="translate(1569 111) rotate(180)"/>
      <rect class="cls-9" x="910" y="109.5" width="87" height="6"/>
      <rect class="cls-9" x="1008.5" y="109.5" width="6" height="6"/>
    </g>
    <g>
      <rect class="cls-9" x="303" y="52.5" width="87" height="6" transform="translate(693 111) rotate(180)"/>
      <rect class="cls-9" x="285.5" y="52.5" width="6" height="6" transform="translate(577 111) rotate(180)"/>
      <rect class="cls-9" x="414" y="109.5" width="87" height="6"/>
      <rect class="cls-9" x="512.5" y="109.5" width="6" height="6"/>
    </g>
    <g>
      <polygon class="cls-7" points="682.25 508.21 548.25 508.21 548.25 485.39 559.75 466 682.25 466 682.25 508.21"/>
      <circle class="cls-6" cx="564.75" cy="508" r="5.18"/>
      <circle class="cls-6" cx="665.75" cy="508" r="5.18"/>
    </g>
    <g>
      <rect class="cls-7" x="1048.94" y="454.5" width="69.06" height="53.71" transform="translate(2166.94 962.71) rotate(180)"/>
      <path class="cls-7" d="M1024,508.21h24.94v-32.21h-17.44l-7.5,12.71v19.5Z"/>
      <circle class="cls-6" cx="1101" cy="508" r="5.18"/>
      <circle class="cls-6" cx="1036.47" cy="508" r="5.18"/>
    </g>
    <g>
      <path class="cls-7" d="M384.5,476h-34.88l-24.12,12.71v19.5h66.5v-19.5l-7.5-12.71Z"/>
      <circle class="cls-6" cx="379.53" cy="508" r="5.18"/>
      <circle class="cls-6" cx="345" cy="508" r="5.18"/>
    </g>
    <g>
      <path class="cls-7" d="M422,513h34.88l24.12,12.71v19.5h-66.5v-19.5l7.5-12.71Z"/>
      <circle class="cls-6" cx="426.97" cy="545" r="5.18"/>
      <circle class="cls-6" cx="461.5" cy="545" r="5.18"/>
    </g>
    <g>
      <rect class="cls-7" x="813" y="492.5" width="25.5" height="16"/>
      <polygon class="cls-7" points="801.57 508.5 792 508.5 800.43 477.5 810 477.5 801.57 508.5"/>
      <line class="cls-2" x1="815.5" y1="508.5" x2="790.5" y2="508.5"/>
      <circle class="cls-6" cx="825.75" cy="508" r="5.18"/>
      <circle class="cls-6" cx="794" cy="508" r="5.18"/>
    </g>
    <g>
      <rect class="cls-7" x="711" y="529.5" width="25.5" height="16" transform="translate(1447.5 1075) rotate(180)"/>
      <polygon class="cls-7" points="747.93 545.5 757.5 545.5 749.07 514.5 739.5 514.5 747.93 545.5"/>
      <line class="cls-2" x1="734" y1="545.5" x2="759" y2="545.5"/>
      <circle class="cls-6" cx="723.75" cy="545" r="5.18"/>
      <circle class="cls-6" cx="755.5" cy="545" r="5.18"/>
    </g>
    <g>
      <rect class="cls-7" x="193" y="491.5" width="69.06" height="53.71"/>
      <path class="cls-7" d="M287,545.21h-24.94v-32.21h17.44l7.5,12.71v19.5Z"/>
      <circle class="cls-6" cx="210" cy="545" r="5.18"/>
      <circle class="cls-6" cx="274.53" cy="545" r="5.18"/>
    </g>
    <g>
      <polygon class="cls-7" points="873.25 545.21 1007.25 545.21 1007.25 522.39 995.75 503 873.25 503 873.25 545.21"/>
      <circle class="cls-6" cx="990.75" cy="545" r="5.18"/>
      <circle class="cls-6" cx="889.75" cy="545" r="5.18"/>
    </g>
    <g>
      <rect class="cls-7" x="1134.59" y="333" width="39" height="72"/>
      <polyline class="cls-2" points="1153.72 349.75 1151.09 358 1157.09 358 1154.47 366.25"/>
    </g>
    <g>
      <polygon class="cls-6" points="264.49 346 179.49 346 169.19 405 254.19 405 264.49 346"/>
      <g>
        <polygon class="cls-7" points="169.02 352.78 159.91 405 246.94 405 256.06 352.78 169.02 352.78"/>
        <g>
          <line class="cls-2" x1="165.98" y1="369.89" x2="252.98" y2="369.89"/>
          <line class="cls-2" x1="162.98" y1="387.89" x2="249.98" y2="387.89"/>
        </g>
        <g>
          <line class="cls-2" x1="196.98" y1="352.89" x2="187.98" y2="404.89"/>
          <line class="cls-2" x1="227.98" y1="352.89" x2="218.98" y2="404.89"/>
        </g>
      </g>
    </g>
    <g>
      <path class="cls-3" d="M931.5,355v49c0,4.14,13.66,7.5,30.5,7.5s30.5-3.36,30.5-7.5v-49h-61Z"/>
      <ellipse class="cls-3" cx="962" cy="353" rx="30.5" ry="7.5"/>
      <path class="cls-1" d="M931.5,208v133c0,4.14,13.66,7.5,30.5,7.5s30.5-3.36,30.5-7.5V208h-61Z"/>
      <ellipse class="cls-1" cx="962" cy="205.5" rx="30.5" ry="7.5"/>
    </g>
    <g>
      <g>
        <rect class="cls-7" x="95.85" y="353" width="24" height="52"/>
        <rect class="cls-7" x="102.85" y="347" width="10" height="6"/>
      </g>
      <polyline class="cls-2" points="107.48 367.75 104.85 376 110.85 376 108.23 384.25"/>
    </g>
    <g>
      <polygon class="cls-6" points="1077.28 405 1066.73 405 1070.04 310.08 1072.01 310.08 1073.97 310.08 1077.28 405"/>
      <g>
        <polygon class="cls-7" points="1061.46 311.37 1072.24 309.91 1063.64 303.26 1030.41 294.36 1028.24 302.47 1061.46 311.37"/>
        <polygon class="cls-7" points="1070.71 320.66 1072.17 309.88 1078.82 318.49 1087.73 351.71 1079.61 353.88 1070.71 320.66"/>
        <polygon class="cls-7" points="1076.16 300.04 1072.04 310.1 1082.1 305.98 1106.42 281.66 1100.48 275.72 1076.16 300.04"/>
      </g>
      <circle class="cls-6" cx="1072.17" cy="309.91" r="4.82"/>
    </g>
    <line class="cls-2" x1="383" y1="531.68" x2="405" y2="531.68"/>
    <line class="cls-2" x1="388.85" y1="542.36" x2="405" y2="542.36"/>
  </g>
  <circle class="cls-8" cx="1159.5" cy="423.5" r="25"/>
  <circle class="cls-8" cx="741.5" cy="418.5" r="25"/>
  <circle class="cls-8" cx="1106.5" cy="276.5" r="25"/>
  <circle class="cls-8" cx="837.5" cy="513.5" r="25"/>
  <circle class="cls-8" cx="192.5" cy="545.5" r="25"/>
  <circle class="cls-8" cx="94.5" cy="418.5" r="25"/>
  <circle class="cls-8" cx="256.5" cy="349.5" r="25"/>
</svg>