<?xml version="1.0" encoding="utf-8"?>
<!-- Generator: Adobe Illustrator 27.0.0, SVG Export Plug-In . SVG Version: 6.00 Build 0)  -->
<svg version="1.1" id="_圖層_1" xmlns="http://www.w3.org/2000/svg" xmlns:xlink="http://www.w3.org/1999/xlink" x="0px" y="0px"
	 viewBox="0 0 56 56" style="enable-background:new 0 0 56 56;" xml:space="preserve">
<style type="text/css">
	.st0{fill:#0A557E;}
</style>
<circle class="st0" cx="28" cy="28" r="12.1"/>
<rect x="18" y="4.6" transform="matrix(0.9239 -0.3827 0.3827 0.9239 -1.4197 8.0574)" class="st0" width="3.1" height="5.9"/>
<rect x="4.6" y="34.9" transform="matrix(0.9239 -0.3825 0.3825 0.9239 -13.3704 5.6737)" class="st0" width="5.9" height="3.1"/>
<rect x="45.5" y="18" transform="matrix(0.9239 -0.3825 0.3825 0.9239 -3.7915 20.0074)" class="st0" width="5.9" height="3.1"/>
<rect x="34.9" y="45.5" transform="matrix(0.9238 -0.3828 0.3828 0.9238 -15.7562 17.6441)" class="st0" width="3.1" height="5.9"/>
<rect x="33.5" y="6" transform="matrix(0.3825 -0.9239 0.9239 0.3825 15.4971 38.3666)" class="st0" width="5.9" height="3.1"/>
<rect x="6" y="16.6" transform="matrix(0.3827 -0.9239 0.9239 0.3827 -13.3783 19.0819)" class="st0" width="3.1" height="5.9"/>
<rect x="46.9" y="33.5" transform="matrix(0.3828 -0.9238 0.9238 0.3828 -3.7948 67.22)" class="st0" width="3.1" height="5.9"/>
<rect x="16.6" y="46.9" transform="matrix(0.3825 -0.9239 0.9239 0.3825 -32.6582 47.9554)" class="st0" width="5.9" height="3.1"/>
<rect x="26.5" class="st0" width="3.1" height="11.8"/>
<rect y="26.5" class="st0" width="11.8" height="3.1"/>
<rect x="44.2" y="26.5" class="st0" width="11.8" height="3.1"/>
<rect x="26.5" y="44.2" class="st0" width="3.1" height="11.8"/>
<rect x="37.7" y="10.8" transform="matrix(0.7076 -0.7066 0.7066 0.7076 4.0037 34.4435)" class="st0" width="11.8" height="3.1"/>
<rect x="10.8" y="6.5" transform="matrix(0.7071 -0.7071 0.7071 0.7071 -5.1306 12.3736)" class="st0" width="3.1" height="11.8"/>
<rect x="42.1" y="37.7" transform="matrix(0.7071 -0.7071 0.7071 0.7071 -18.068 43.6271)" class="st0" width="3.1" height="11.8"/>
<rect x="6.5" y="42.1" transform="matrix(0.7066 -0.7076 0.7076 0.7066 -27.2355 21.5643)" class="st0" width="11.8" height="3.1"/>
</svg>
